<svg aria-roledescription="flowchart-v2" role="graphics-document document" viewBox="0 0 1584.59765625 1084.9375" style="max-width: 1584.6px; background-color: white;" class="flowchart" xmlns:xlink="http://www.w3.org/1999/xlink" xmlns="http://www.w3.org/2000/svg" width="100%" id="my-svg"><style>#my-svg{font-family:"trebuchet ms",verdana,arial,sans-serif;font-size:16px;fill:#333;}@keyframes edge-animation-frame{from{stroke-dashoffset:0;}}@keyframes dash{to{stroke-dashoffset:0;}}#my-svg .edge-animation-slow{stroke-dasharray:9,5!important;stroke-dashoffset:900;animation:dash 50s linear infinite;stroke-linecap:round;}#my-svg .edge-animation-fast{stroke-dasharray:9,5!important;stroke-dashoffset:900;animation:dash 20s linear infinite;stroke-linecap:round;}#my-svg .error-icon{fill:#552222;}#my-svg .error-text{fill:#552222;stroke:#552222;}#my-svg .edge-thickness-normal{stroke-width:1px;}#my-svg .edge-thickness-thick{stroke-width:3.5px;}#my-svg .edge-pattern-solid{stroke-dasharray:0;}#my-svg .edge-thickness-invisible{stroke-width:0;fill:none;}#my-svg .edge-pattern-dashed{stroke-dasharray:3;}#my-svg .edge-pattern-dotted{stroke-dasharray:2;}#my-svg .marker{fill:#333333;stroke:#333333;}#my-svg .marker.cross{stroke:#333333;}#my-svg svg{font-family:"trebuchet ms",verdana,arial,sans-serif;font-size:16px;}#my-svg p{margin:0;}#my-svg .label{font-family:"trebuchet ms",verdana,arial,sans-serif;color:#333;}#my-svg .cluster-label text{fill:#333;}#my-svg .cluster-label span{color:#333;}#my-svg .cluster-label span p{background-color:transparent;}#my-svg .label text,#my-svg span{fill:#333;color:#333;}#my-svg .node rect,#my-svg .node circle,#my-svg .node ellipse,#my-svg .node polygon,#my-svg .node path{fill:#ECECFF;stroke:#9370DB;stroke-width:1px;}#my-svg .rough-node .label text,#my-svg .node .label text,#my-svg .image-shape .label,#my-svg .icon-shape .label{text-anchor:middle;}#my-svg .node .katex path{fill:#000;stroke:#000;stroke-width:1px;}#my-svg .rough-node .label,#my-svg .node .label,#my-svg .image-shape .label,#my-svg .icon-shape .label{text-align:center;}#my-svg .node.clickable{cursor:pointer;}#my-svg .root .anchor path{fill:#333333!important;stroke-width:0;stroke:#333333;}#my-svg .arrowheadPath{fill:#333333;}#my-svg .edgePath .path{stroke:#333333;stroke-width:2.0px;}#my-svg .flowchart-link{stroke:#333333;fill:none;}#my-svg .edgeLabel{background-color:rgba(232,232,232, 0.8);text-align:center;}#my-svg .edgeLabel p{background-color:rgba(232,232,232, 0.8);}#my-svg .edgeLabel rect{opacity:0.5;background-color:rgba(232,232,232, 0.8);fill:rgba(232,232,232, 0.8);}#my-svg .labelBkg{background-color:rgba(232, 232, 232, 0.5);}#my-svg .cluster rect{fill:#ffffde;stroke:#aaaa33;stroke-width:1px;}#my-svg .cluster text{fill:#333;}#my-svg .cluster span{color:#333;}#my-svg div.mermaidTooltip{position:absolute;text-align:center;max-width:200px;padding:2px;font-family:"trebuchet ms",verdana,arial,sans-serif;font-size:12px;background:hsl(80, 100%, 96.2745098039%);border:1px solid #aaaa33;border-radius:2px;pointer-events:none;z-index:100;}#my-svg .flowchartTitleText{text-anchor:middle;font-size:18px;fill:#333;}#my-svg rect.text{fill:none;stroke-width:0;}#my-svg .icon-shape,#my-svg .image-shape{background-color:rgba(232,232,232, 0.8);text-align:center;}#my-svg .icon-shape p,#my-svg .image-shape p{background-color:rgba(232,232,232, 0.8);padding:2px;}#my-svg .icon-shape rect,#my-svg .image-shape rect{opacity:0.5;background-color:rgba(232,232,232, 0.8);fill:rgba(232,232,232, 0.8);}#my-svg :root{--mermaid-font-family:"trebuchet ms",verdana,arial,sans-serif;}</style><g><marker orient="auto" markerHeight="8" markerWidth="8" markerUnits="userSpaceOnUse" refY="5" refX="5" viewBox="0 0 10 10" class="marker flowchart-v2" id="my-svg_flowchart-v2-pointEnd"><path style="stroke-width: 1; stroke-dasharray: 1, 0;" class="arrowMarkerPath" d="M 0 0 L 10 5 L 0 10 z"/></marker><marker orient="auto" markerHeight="8" markerWidth="8" markerUnits="userSpaceOnUse" refY="5" refX="4.5" viewBox="0 0 10 10" class="marker flowchart-v2" id="my-svg_flowchart-v2-pointStart"><path style="stroke-width: 1; stroke-dasharray: 1, 0;" class="arrowMarkerPath" d="M 0 5 L 10 10 L 10 0 z"/></marker><marker orient="auto" markerHeight="11" markerWidth="11" markerUnits="userSpaceOnUse" refY="5" refX="11" viewBox="0 0 10 10" class="marker flowchart-v2" id="my-svg_flowchart-v2-circleEnd"><circle style="stroke-width: 1; stroke-dasharray: 1, 0;" class="arrowMarkerPath" r="5" cy="5" cx="5"/></marker><marker orient="auto" markerHeight="11" markerWidth="11" markerUnits="userSpaceOnUse" refY="5" refX="-1" viewBox="0 0 10 10" class="marker flowchart-v2" id="my-svg_flowchart-v2-circleStart"><circle style="stroke-width: 1; stroke-dasharray: 1, 0;" class="arrowMarkerPath" r="5" cy="5" cx="5"/></marker><marker orient="auto" markerHeight="11" markerWidth="11" markerUnits="userSpaceOnUse" refY="5.2" refX="12" viewBox="0 0 11 11" class="marker cross flowchart-v2" id="my-svg_flowchart-v2-crossEnd"><path style="stroke-width: 2; stroke-dasharray: 1, 0;" class="arrowMarkerPath" d="M 1,1 l 9,9 M 10,1 l -9,9"/></marker><marker orient="auto" markerHeight="11" markerWidth="11" markerUnits="userSpaceOnUse" refY="5.2" refX="-1" viewBox="0 0 11 11" class="marker cross flowchart-v2" id="my-svg_flowchart-v2-crossStart"><path style="stroke-width: 2; stroke-dasharray: 1, 0;" class="arrowMarkerPath" d="M 1,1 l 9,9 M 10,1 l -9,9"/></marker><g class="root"><g class="clusters"><g data-look="classic" id="subGraph2" class="cluster"><rect height="200.9375" width="524.8125" y="571" x="1051.78515625" style=""/><g transform="translate(1227.93359375, 571)" class="cluster-label"><foreignObject height="24" width="172.515625"><div style="display: table-cell; white-space: nowrap; line-height: 1.5; max-width: 200px; text-align: center;" xmlns="http://www.w3.org/1999/xhtml"><span class="nodeLabel"><p>Infrastructure &amp; External</p></span></div></foreignObject></g></g><g data-look="classic" id="subGraph1" class="cluster"><rect height="914.9375" width="1023.78515625" y="162" x="8" style=""/><g transform="translate(451.431640625, 162)" class="cluster-label"><foreignObject height="24" width="136.921875"><div style="display: table-cell; white-space: nowrap; line-height: 1.5; max-width: 200px; text-align: center;" xmlns="http://www.w3.org/1999/xhtml"><span class="nodeLabel"><p>Core Microservices</p></span></div></foreignObject></g></g><g data-look="classic" id="Clients" class="cluster"><rect height="104" width="290.96875" y="8" x="282.59375" style=""/><g transform="translate(403.625, 8)" class="cluster-label"><foreignObject height="24" width="48.90625"><div style="display: table-cell; white-space: nowrap; line-height: 1.5; max-width: 200px; text-align: center;" xmlns="http://www.w3.org/1999/xhtml"><span class="nodeLabel"><p>Clients</p></span></div></foreignObject></g></g></g><g class="edgePaths"><path marker-end="url(#my-svg_flowchart-v2-pointEnd)" style="" class="edge-thickness-normal edge-pattern-solid edge-thickness-normal edge-pattern-solid flowchart-link" id="L_User_API_0" d="M428.078,87L428.078,91.167C428.078,95.333,428.078,103.667,428.078,112C428.078,120.333,428.078,128.667,428.078,137C428.078,145.333,428.078,153.667,428.078,161.333C428.078,169,428.078,176,428.078,179.5L428.078,183"/><path marker-end="url(#my-svg_flowchart-v2-pointEnd)" style="" class="edge-thickness-normal edge-pattern-solid edge-thickness-normal edge-pattern-solid flowchart-link" id="L_API_IdentitySvc_0" d="M392.785,241L387.338,245.167C381.892,249.333,370.999,257.667,365.552,270.5C360.105,283.333,360.105,300.667,360.105,320C360.105,339.333,360.105,360.667,360.105,376.833C360.105,393,360.105,404,360.105,409.5L360.105,415"/><path marker-end="url(#my-svg_flowchart-v2-pointEnd)" style="" class="edge-thickness-normal edge-pattern-solid edge-thickness-normal edge-pattern-solid flowchart-link" id="L_API_CatalogSvc_0" d="M485.498,241L494.359,245.167C503.22,249.333,520.942,257.667,529.803,270.5C538.664,283.333,538.664,300.667,538.664,320C538.664,339.333,538.664,360.667,542.401,376.945C546.137,393.224,553.61,404.447,557.347,410.059L561.083,415.671"/><path marker-end="url(#my-svg_flowchart-v2-pointEnd)" style="" class="edge-thickness-normal edge-pattern-solid edge-thickness-normal edge-pattern-solid flowchart-link" id="L_API_CustomerSvc_0" d="M351.391,225.615L306.949,232.345C262.507,239.076,173.622,252.538,129.18,267.936C84.738,283.333,84.738,300.667,84.738,320C84.738,339.333,84.738,360.667,84.738,382C84.738,403.333,84.738,424.667,84.738,448C84.738,471.333,84.738,496.667,84.738,517.5C84.738,538.333,84.738,554.667,84.738,579.578C84.738,604.49,84.738,637.979,84.738,671.469C84.738,704.958,84.738,738.448,84.738,763.359C84.738,788.271,84.738,804.604,99.157,820.619C113.576,836.633,142.414,852.329,156.833,860.177L171.251,868.025"/><path marker-end="url(#my-svg_flowchart-v2-pointEnd)" style="" class="edge-thickness-normal edge-pattern-solid edge-thickness-normal edge-pattern-solid flowchart-link" id="L_API_OrderSvc_0" d="M504.766,225.939L547.653,232.616C590.54,239.293,676.315,252.646,719.202,262.823C762.09,273,762.09,280,762.09,283.5L762.09,287"/><path marker-end="url(#my-svg_flowchart-v2-pointEnd)" style="" class="edge-thickness-normal edge-pattern-solid edge-thickness-normal edge-pattern-solid flowchart-link" id="L_OrderSvc_CatalogSvc_0" d="M710.715,345L698.981,351.167C687.248,357.333,663.78,369.667,646.81,381.51C629.84,393.353,619.367,404.707,614.131,410.383L608.895,416.06"/><path marker-end="url(#my-svg_flowchart-v2-pointEnd)" style="" class="edge-thickness-normal edge-pattern-solid edge-thickness-normal edge-pattern-solid flowchart-link" id="L_OrderSvc_CustomerSvc_0" d="M682.738,326.668L598.311,335.89C513.884,345.112,345.03,363.556,260.603,383.445C176.176,403.333,176.176,424.667,176.176,448C176.176,471.333,176.176,496.667,176.176,517.5C176.176,538.333,176.176,554.667,176.176,579.578C176.176,604.49,176.176,637.979,176.176,671.469C176.176,704.958,176.176,738.448,176.176,763.359C176.176,788.271,176.176,804.604,180.998,820.374C185.819,836.145,195.463,851.352,200.285,858.956L205.107,866.559"/><path marker-end="url(#my-svg_flowchart-v2-pointEnd)" style="" class="edge-thickness-normal edge-pattern-solid edge-thickness-normal edge-pattern-solid flowchart-link" id="L_OrderSvc_PaymentGateway_0" d="M840.98,345L858.999,351.167C877.017,357.333,913.053,369.667,931.072,386.5C949.09,403.333,949.09,424.667,949.09,448C949.09,471.333,949.09,496.667,949.09,517.5C949.09,538.333,949.09,554.667,1005.18,574.937C1061.271,595.208,1173.452,619.417,1229.542,631.521L1285.633,643.625"/><path marker-end="url(#my-svg_flowchart-v2-pointEnd)" style="" class="edge-thickness-normal edge-pattern-solid edge-thickness-normal edge-pattern-solid flowchart-link" id="L_IdentitySvc_MessageBus_0" d="M360.105,473L360.105,481.167C360.105,489.333,360.105,505.667,360.105,522C360.105,538.333,360.105,554.667,482.041,578.178C603.976,601.69,847.846,632.379,969.782,647.724L1091.717,663.069"/><path marker-end="url(#my-svg_flowchart-v2-pointEnd)" style="" class="edge-thickness-normal edge-pattern-solid edge-thickness-normal edge-pattern-solid flowchart-link" id="L_MessageBus_CustomerSvc_0" d="M1139.324,724.008L1135.607,731.996C1131.889,739.984,1124.454,755.961,1008.116,772.116C891.777,788.271,666.535,804.604,531.234,820.717C395.932,836.83,350.571,852.722,327.891,860.669L305.21,868.615"/><path marker-end="url(#my-svg_flowchart-v2-pointEnd)" style="" class="edge-thickness-normal edge-pattern-solid edge-thickness-normal edge-pattern-solid flowchart-link" id="L_CatalogSvc_MessageBus_0" d="M581.277,473L581.277,481.167C581.277,489.333,581.277,505.667,581.277,522C581.277,538.333,581.277,554.667,666.81,577.693C752.342,600.719,923.406,630.438,1008.939,645.298L1094.471,660.157"/><path marker-end="url(#my-svg_flowchart-v2-pointEnd)" style="" class="edge-thickness-normal edge-pattern-solid edge-thickness-normal edge-pattern-solid flowchart-link" id="L_MessageBus_CustomerSvc_2" d="M1162.754,747.438L1162.671,751.521C1162.587,755.604,1162.421,763.771,1078.184,776.021C993.947,788.271,825.639,804.604,685.579,822.585C545.518,840.565,433.703,860.192,377.796,870.006L321.889,879.82"/><path marker-end="url(#my-svg_flowchart-v2-pointEnd)" style="" class="edge-thickness-normal edge-pattern-solid edge-thickness-normal edge-pattern-solid flowchart-link" id="L_CustomerSvc_NotificationSvc_0" d="M224.371,923.938L224.371,930.104C224.371,936.271,224.371,948.604,239.937,960.7C255.504,972.796,286.637,984.655,302.203,990.584L317.769,996.514"/><path marker-end="url(#my-svg_flowchart-v2-pointEnd)" style="" class="edge-thickness-normal edge-pattern-solid edge-thickness-normal edge-pattern-solid flowchart-link" id="L_OrderSvc_MessageBus_0" d="M771.575,345L773.742,351.167C775.908,357.333,780.241,369.667,782.408,386.5C784.574,403.333,784.574,424.667,784.574,448C784.574,471.333,784.574,496.667,784.574,517.5C784.574,538.333,784.574,554.667,837.025,576.846C889.476,599.026,994.377,627.053,1046.828,641.066L1099.278,655.079"/><path marker-end="url(#my-svg_flowchart-v2-pointEnd)" style="" class="edge-thickness-normal edge-pattern-solid edge-thickness-normal edge-pattern-solid flowchart-link" id="L_MessageBus_NotificationSvc_0" d="M1213.576,696.615L1239.551,709.169C1265.526,721.723,1317.476,746.83,1252.598,767.55C1187.72,788.271,1006.014,804.604,915.161,825.438C824.309,846.271,824.309,871.604,824.309,894.938C824.309,918.271,824.309,939.604,769.394,958.408C714.48,977.211,604.652,993.485,549.738,1001.622L494.824,1009.759"/></g><g class="edgeLabels"><g class="edgeLabel"><g transform="translate(0, 0)" class="label"><foreignObject height="0" width="0"><div style="display: table-cell; white-space: nowrap; line-height: 1.5; max-width: 200px; text-align: center;" class="labelBkg" xmlns="http://www.w3.org/1999/xhtml"><span class="edgeLabel"></span></div></foreignObject></g></g><g class="edgeLabel"><g transform="translate(0, 0)" class="label"><foreignObject height="0" width="0"><div style="display: table-cell; white-space: nowrap; line-height: 1.5; max-width: 200px; text-align: center;" class="labelBkg" xmlns="http://www.w3.org/1999/xhtml"><span class="edgeLabel"></span></div></foreignObject></g></g><g class="edgeLabel"><g transform="translate(0, 0)" class="label"><foreignObject height="0" width="0"><div style="display: table-cell; white-space: nowrap; line-height: 1.5; max-width: 200px; text-align: center;" class="labelBkg" xmlns="http://www.w3.org/1999/xhtml"><span class="edgeLabel"></span></div></foreignObject></g></g><g class="edgeLabel"><g transform="translate(0, 0)" class="label"><foreignObject height="0" width="0"><div style="display: table-cell; white-space: nowrap; line-height: 1.5; max-width: 200px; text-align: center;" class="labelBkg" xmlns="http://www.w3.org/1999/xhtml"><span class="edgeLabel"></span></div></foreignObject></g></g><g class="edgeLabel"><g transform="translate(0, 0)" class="label"><foreignObject height="0" width="0"><div style="display: table-cell; white-space: nowrap; line-height: 1.5; max-width: 200px; text-align: center;" class="labelBkg" xmlns="http://www.w3.org/1999/xhtml"><span class="edgeLabel"></span></div></foreignObject></g></g><g transform="translate(640.3125, 382)" class="edgeLabel"><g transform="translate(-65.2265625, -12)" class="label"><foreignObject height="24" width="130.453125"><div style="display: table-cell; white-space: nowrap; line-height: 1.5; max-width: 200px; text-align: center;" class="labelBkg" xmlns="http://www.w3.org/1999/xhtml"><span class="edgeLabel"><p>GET /products/{id}</p></span></div></foreignObject></g></g><g transform="translate(176.17578125, 522)" class="edgeLabel"><g transform="translate(-71.4375, -12)" class="label"><foreignObject height="24" width="142.875"><div style="display: table-cell; white-space: nowrap; line-height: 1.5; max-width: 200px; text-align: center;" class="labelBkg" xmlns="http://www.w3.org/1999/xhtml"><span class="edgeLabel"><p>GET /customers/{id}</p></span></div></foreignObject></g></g><g transform="translate(949.08984375, 446)" class="edgeLabel"><g transform="translate(-62.6953125, -12)" class="label"><foreignObject height="24" width="125.390625"><div style="display: table-cell; white-space: nowrap; line-height: 1.5; max-width: 200px; text-align: center;" class="labelBkg" xmlns="http://www.w3.org/1999/xhtml"><span class="edgeLabel"><p>Process Payment</p></span></div></foreignObject></g></g><g transform="translate(360.10546875, 522)" class="edgeLabel"><g transform="translate(-92.4921875, -12)" class="label"><foreignObject height="24" width="184.984375"><div style="display: table-cell; white-space: nowrap; line-height: 1.5; max-width: 200px; text-align: center;" class="labelBkg" xmlns="http://www.w3.org/1999/xhtml"><span class="edgeLabel"><p>Publishes UserRegistered</p></span></div></foreignObject></g></g><g transform="translate(441.29296875, 820.9375)" class="edgeLabel"><g transform="translate(-96.0390625, -12)" class="label"><foreignObject height="24" width="192.078125"><div style="display: table-cell; white-space: nowrap; line-height: 1.5; max-width: 200px; text-align: center;" class="labelBkg" xmlns="http://www.w3.org/1999/xhtml"><span class="edgeLabel"><p>Consumes UserRegistered</p></span></div></foreignObject></g></g><g transform="translate(581.27734375, 522)" class="edgeLabel"><g transform="translate(-100, -24)" class="label"><foreignObject height="48" width="200"><div style="display: table; white-space: break-spaces; line-height: 1.5; max-width: 200px; text-align: center; width: 200px;" class="labelBkg" xmlns="http://www.w3.org/1999/xhtml"><span class="edgeLabel"><p>Publishes ProductRestocked</p></span></div></foreignObject></g></g><g transform="translate(657.33203125, 820.9375)" class="edgeLabel"><g transform="translate(-100, -24)" class="label"><foreignObject height="48" width="200"><div style="display: table; white-space: break-spaces; line-height: 1.5; max-width: 200px; text-align: center; width: 200px;" class="labelBkg" xmlns="http://www.w3.org/1999/xhtml"><span class="edgeLabel"><p>Consumes ProductRestocked</p></span></div></foreignObject></g></g><g transform="translate(224.37109375, 960.9375)" class="edgeLabel"><g transform="translate(-76.03125, -12)" class="label"><foreignObject height="24" width="152.0625"><div style="display: table-cell; white-space: nowrap; line-height: 1.5; max-width: 200px; text-align: center;" class="labelBkg" xmlns="http://www.w3.org/1999/xhtml"><span class="edgeLabel"><p>Sends Restock Email</p></span></div></foreignObject></g></g><g transform="translate(784.57421875, 446)" class="edgeLabel"><g transform="translate(-81.8203125, -12)" class="label"><foreignObject height="24" width="163.640625"><div style="display: table-cell; white-space: nowrap; line-height: 1.5; max-width: 200px; text-align: center;" class="labelBkg" xmlns="http://www.w3.org/1999/xhtml"><span class="edgeLabel"><p>Publishes OrderPlaced</p></span></div></foreignObject></g></g><g transform="translate(824.30859375, 896.9375)" class="edgeLabel"><g transform="translate(-85.375, -12)" class="label"><foreignObject height="24" width="170.75"><div style="display: table-cell; white-space: nowrap; line-height: 1.5; max-width: 200px; text-align: center;" class="labelBkg" xmlns="http://www.w3.org/1999/xhtml"><span class="edgeLabel"><p>Consumes OrderPlaced</p></span></div></foreignObject></g></g></g><g class="nodes"><g transform="translate(428.078125, 60)" id="flowchart-User-0" class="node default"><rect height="54" width="220.96875" y="-27" x="-110.484375" style="" class="basic label-container"/><g transform="translate(-80.484375, -12)" style="" class="label"><rect/><foreignObject height="24" width="160.96875"><div style="display: table-cell; white-space: nowrap; line-height: 1.5; max-width: 200px; text-align: center;" xmlns="http://www.w3.org/1999/xhtml"><span class="nodeLabel"><p>User/Client Application</p></span></div></foreignObject></g></g><g transform="translate(428.078125, 214)" id="flowchart-API-1" class="node default"><rect height="54" width="153.375" y="-27" x="-76.6875" style="" class="basic label-container"/><g transform="translate(-46.6875, -12)" style="" class="label"><rect/><foreignObject height="24" width="93.375"><div style="display: table-cell; white-space: nowrap; line-height: 1.5; max-width: 200px; text-align: center;" xmlns="http://www.w3.org/1999/xhtml"><span class="nodeLabel"><p>API Gateway</p></span></div></foreignObject></g></g><g transform="translate(360.10546875, 446)" id="flowchart-IdentitySvc-2" class="node default"><rect height="54" width="169.390625" y="-27" x="-84.6953125" style="" class="basic label-container"/><g transform="translate(-54.6953125, -12)" style="" class="label"><rect/><foreignObject height="24" width="109.390625"><div style="display: table-cell; white-space: nowrap; line-height: 1.5; max-width: 200px; text-align: center;" xmlns="http://www.w3.org/1999/xhtml"><span class="nodeLabel"><p>Identity Service</p></span></div></foreignObject></g></g><g transform="translate(581.27734375, 446)" id="flowchart-CatalogSvc-3" class="node default"><rect height="54" width="172.953125" y="-27" x="-86.4765625" style="" class="basic label-container"/><g transform="translate(-56.4765625, -12)" style="" class="label"><rect/><foreignObject height="24" width="112.953125"><div style="display: table-cell; white-space: nowrap; line-height: 1.5; max-width: 200px; text-align: center;" xmlns="http://www.w3.org/1999/xhtml"><span class="nodeLabel"><p>Catalog Service</p></span></div></foreignObject></g></g><g transform="translate(224.37109375, 896.9375)" id="flowchart-CustomerSvc-4" class="node default"><rect height="54" width="187.15625" y="-27" x="-93.578125" style="" class="basic label-container"/><g transform="translate(-63.578125, -12)" style="" class="label"><rect/><foreignObject height="24" width="127.15625"><div style="display: table-cell; white-space: nowrap; line-height: 1.5; max-width: 200px; text-align: center;" xmlns="http://www.w3.org/1999/xhtml"><span class="nodeLabel"><p>Customer Service</p></span></div></foreignObject></g></g><g transform="translate(762.08984375, 318)" id="flowchart-OrderSvc-5" class="node default"><rect height="54" width="158.703125" y="-27" x="-79.3515625" style="" class="basic label-container"/><g transform="translate(-49.3515625, -12)" style="" class="label"><rect/><foreignObject height="24" width="98.703125"><div style="display: table-cell; white-space: nowrap; line-height: 1.5; max-width: 200px; text-align: center;" xmlns="http://www.w3.org/1999/xhtml"><span class="nodeLabel"><p>Order Service</p></span></div></foreignObject></g></g><g transform="translate(392.390625, 1024.9375)" id="flowchart-NotificationSvc-6" class="node default"><rect height="54" width="196.953125" y="-27" x="-98.4765625" style="" class="basic label-container"/><g transform="translate(-68.4765625, -12)" style="" class="label"><rect/><foreignObject height="24" width="136.953125"><div style="display: table-cell; white-space: nowrap; line-height: 1.5; max-width: 200px; text-align: center;" xmlns="http://www.w3.org/1999/xhtml"><span class="nodeLabel"><p>Notification Service</p></span></div></foreignObject></g></g><g transform="translate(1162.25390625, 671.46875)" id="flowchart-MessageBus-7" class="node default"><polygon transform="translate(-75.46875,75.46875)" class="label-container" points="75.46875,0 150.9375,-75.46875 75.46875,-150.9375 0,-75.46875"/><g transform="translate(-48.46875, -12)" style="" class="label"><rect/><foreignObject height="24" width="96.9375"><div style="display: table-cell; white-space: nowrap; line-height: 1.5; max-width: 200px; text-align: center;" xmlns="http://www.w3.org/1999/xhtml"><span class="nodeLabel"><p>Message Bus</p></span></div></foreignObject></g></g><g transform="translate(1414.66015625, 671.46875)" id="flowchart-PaymentGateway-8" class="node default"><rect height="54" width="253.875" y="-27" x="-126.9375" style="" class="basic label-container"/><g transform="translate(-96.9375, -12)" style="" class="label"><rect/><foreignObject height="24" width="193.875"><div style="display: table-cell; white-space: nowrap; line-height: 1.5; max-width: 200px; text-align: center;" xmlns="http://www.w3.org/1999/xhtml"><span class="nodeLabel"><p>External Payment Gateway</p></span></div></foreignObject></g></g></g></g></g></svg>