<svg aria-roledescription="flowchart-v2" role="graphics-document document" viewBox="0 0 2274.28125 1365.8411865234375" style="max-width: 2274.28px; background-color: white;" class="flowchart" xmlns:xlink="http://www.w3.org/1999/xlink" xmlns="http://www.w3.org/2000/svg" width="100%" id="my-svg"><style>#my-svg{font-family:"trebuchet ms",verdana,arial,sans-serif;font-size:16px;fill:#333;}@keyframes edge-animation-frame{from{stroke-dashoffset:0;}}@keyframes dash{to{stroke-dashoffset:0;}}#my-svg .edge-animation-slow{stroke-dasharray:9,5!important;stroke-dashoffset:900;animation:dash 50s linear infinite;stroke-linecap:round;}#my-svg .edge-animation-fast{stroke-dasharray:9,5!important;stroke-dashoffset:900;animation:dash 20s linear infinite;stroke-linecap:round;}#my-svg .error-icon{fill:#552222;}#my-svg .error-text{fill:#552222;stroke:#552222;}#my-svg .edge-thickness-normal{stroke-width:1px;}#my-svg .edge-thickness-thick{stroke-width:3.5px;}#my-svg .edge-pattern-solid{stroke-dasharray:0;}#my-svg .edge-thickness-invisible{stroke-width:0;fill:none;}#my-svg .edge-pattern-dashed{stroke-dasharray:3;}#my-svg .edge-pattern-dotted{stroke-dasharray:2;}#my-svg .marker{fill:#333333;stroke:#333333;}#my-svg .marker.cross{stroke:#333333;}#my-svg svg{font-family:"trebuchet ms",verdana,arial,sans-serif;font-size:16px;}#my-svg p{margin:0;}#my-svg .label{font-family:"trebuchet ms",verdana,arial,sans-serif;color:#333;}#my-svg .cluster-label text{fill:#333;}#my-svg .cluster-label span{color:#333;}#my-svg .cluster-label span p{background-color:transparent;}#my-svg .label text,#my-svg span{fill:#333;color:#333;}#my-svg .node rect,#my-svg .node circle,#my-svg .node ellipse,#my-svg .node polygon,#my-svg .node path{fill:#ECECFF;stroke:#9370DB;stroke-width:1px;}#my-svg .rough-node .label text,#my-svg .node .label text,#my-svg .image-shape .label,#my-svg .icon-shape .label{text-anchor:middle;}#my-svg .node .katex path{fill:#000;stroke:#000;stroke-width:1px;}#my-svg .rough-node .label,#my-svg .node .label,#my-svg .image-shape .label,#my-svg .icon-shape .label{text-align:center;}#my-svg .node.clickable{cursor:pointer;}#my-svg .root .anchor path{fill:#333333!important;stroke-width:0;stroke:#333333;}#my-svg .arrowheadPath{fill:#333333;}#my-svg .edgePath .path{stroke:#333333;stroke-width:2.0px;}#my-svg .flowchart-link{stroke:#333333;fill:none;}#my-svg .edgeLabel{background-color:rgba(232,232,232, 0.8);text-align:center;}#my-svg .edgeLabel p{background-color:rgba(232,232,232, 0.8);}#my-svg .edgeLabel rect{opacity:0.5;background-color:rgba(232,232,232, 0.8);fill:rgba(232,232,232, 0.8);}#my-svg .labelBkg{background-color:rgba(232, 232, 232, 0.5);}#my-svg .cluster rect{fill:#ffffde;stroke:#aaaa33;stroke-width:1px;}#my-svg .cluster text{fill:#333;}#my-svg .cluster span{color:#333;}#my-svg div.mermaidTooltip{position:absolute;text-align:center;max-width:200px;padding:2px;font-family:"trebuchet ms",verdana,arial,sans-serif;font-size:12px;background:hsl(80, 100%, 96.2745098039%);border:1px solid #aaaa33;border-radius:2px;pointer-events:none;z-index:100;}#my-svg .flowchartTitleText{text-anchor:middle;font-size:18px;fill:#333;}#my-svg rect.text{fill:none;stroke-width:0;}#my-svg .icon-shape,#my-svg .image-shape{background-color:rgba(232,232,232, 0.8);text-align:center;}#my-svg .icon-shape p,#my-svg .image-shape p{background-color:rgba(232,232,232, 0.8);padding:2px;}#my-svg .icon-shape rect,#my-svg .image-shape rect{opacity:0.5;background-color:rgba(232,232,232, 0.8);fill:rgba(232,232,232, 0.8);}#my-svg :root{--mermaid-font-family:"trebuchet ms",verdana,arial,sans-serif;}</style><g><marker orient="auto" markerHeight="8" markerWidth="8" markerUnits="userSpaceOnUse" refY="5" refX="5" viewBox="0 0 10 10" class="marker flowchart-v2" id="my-svg_flowchart-v2-pointEnd"><path style="stroke-width: 1; stroke-dasharray: 1, 0;" class="arrowMarkerPath" d="M 0 0 L 10 5 L 0 10 z"/></marker><marker orient="auto" markerHeight="8" markerWidth="8" markerUnits="userSpaceOnUse" refY="5" refX="4.5" viewBox="0 0 10 10" class="marker flowchart-v2" id="my-svg_flowchart-v2-pointStart"><path style="stroke-width: 1; stroke-dasharray: 1, 0;" class="arrowMarkerPath" d="M 0 5 L 10 10 L 10 0 z"/></marker><marker orient="auto" markerHeight="11" markerWidth="11" markerUnits="userSpaceOnUse" refY="5" refX="11" viewBox="0 0 10 10" class="marker flowchart-v2" id="my-svg_flowchart-v2-circleEnd"><circle style="stroke-width: 1; stroke-dasharray: 1, 0;" class="arrowMarkerPath" r="5" cy="5" cx="5"/></marker><marker orient="auto" markerHeight="11" markerWidth="11" markerUnits="userSpaceOnUse" refY="5" refX="-1" viewBox="0 0 10 10" class="marker flowchart-v2" id="my-svg_flowchart-v2-circleStart"><circle style="stroke-width: 1; stroke-dasharray: 1, 0;" class="arrowMarkerPath" r="5" cy="5" cx="5"/></marker><marker orient="auto" markerHeight="11" markerWidth="11" markerUnits="userSpaceOnUse" refY="5.2" refX="12" viewBox="0 0 11 11" class="marker cross flowchart-v2" id="my-svg_flowchart-v2-crossEnd"><path style="stroke-width: 2; stroke-dasharray: 1, 0;" class="arrowMarkerPath" d="M 1,1 l 9,9 M 10,1 l -9,9"/></marker><marker orient="auto" markerHeight="11" markerWidth="11" markerUnits="userSpaceOnUse" refY="5.2" refX="-1" viewBox="0 0 11 11" class="marker cross flowchart-v2" id="my-svg_flowchart-v2-crossStart"><path style="stroke-width: 2; stroke-dasharray: 1, 0;" class="arrowMarkerPath" d="M 1,1 l 9,9 M 10,1 l -9,9"/></marker><g class="root"><g class="clusters"/><g class="edgePaths"><path marker-end="url(#my-svg_flowchart-v2-pointEnd)" style="" class="edge-thickness-normal edge-pattern-solid edge-thickness-normal edge-pattern-solid flowchart-link" id="L_Client_APIGateway_0" d="M1679.375,253L1679.375,289C1679.375,325,1679.375,397,1679.375,436.5C1679.375,476,1679.375,483,1679.375,486.5L1679.375,490"/><path marker-end="url(#my-svg_flowchart-v2-pointEnd)" style="" class="edge-thickness-normal edge-pattern-dotted edge-thickness-normal edge-pattern-solid flowchart-link" id="L_APIGateway_IdentityService_0" d="M1602.688,528.71L1509.38,538.092C1416.072,547.474,1229.456,566.237,1136.148,586.285C1042.84,606.333,1042.84,627.667,1042.84,649C1042.84,670.333,1042.84,691.667,1042.84,711.712C1042.84,731.757,1042.84,750.513,1042.84,759.892L1042.84,769.27"/><path marker-end="url(#my-svg_flowchart-v2-pointEnd)" style="" class="edge-thickness-normal edge-pattern-dotted edge-thickness-normal edge-pattern-solid flowchart-link" id="L_APIGateway_CatalogService_0" d="M1602.688,537.979L1567.29,545.815C1531.893,553.652,1461.099,569.326,1425.702,587.83C1390.305,606.333,1390.305,627.667,1390.305,649C1390.305,670.333,1390.305,691.667,1390.305,711.712C1390.305,731.757,1390.305,750.513,1390.305,759.892L1390.305,769.27"/><path marker-end="url(#my-svg_flowchart-v2-pointEnd)" style="" class="edge-thickness-normal edge-pattern-dotted edge-thickness-normal edge-pattern-solid flowchart-link" id="L_APIGateway_CustomerService_0" d="M1649.494,548L1642.67,554.167C1635.845,560.333,1622.196,572.667,1615.371,589.5C1608.547,606.333,1608.547,627.667,1608.547,649C1608.547,670.333,1608.547,691.667,1608.547,716.878C1608.547,742.09,1608.547,771.18,1608.547,800.27C1608.547,829.36,1608.547,858.45,1608.547,889.74C1608.547,921.029,1608.547,954.519,1608.547,988.009C1608.547,1021.498,1608.547,1054.988,1570.937,1079.181C1533.326,1103.374,1458.105,1118.271,1420.495,1125.719L1382.885,1133.168"/><path marker-end="url(#my-svg_flowchart-v2-pointEnd)" style="" class="edge-thickness-normal edge-pattern-dotted edge-thickness-normal edge-pattern-solid flowchart-link" id="L_APIGateway_OrderService_0" d="M1756.063,535.728L1798.822,543.94C1841.581,552.152,1927.099,568.576,1969.858,582.288C2012.617,596,2012.617,607,2012.617,612.5L2012.617,618"/><path marker-end="url(#my-svg_flowchart-v2-pointEnd)" style="" class="edge-thickness-normal edge-pattern-dotted edge-thickness-normal edge-pattern-solid flowchart-link" id="L_OrderService_CatalogService_0" d="M1933.266,663.001L1886.035,671.334C1838.805,679.667,1744.344,696.334,1667.867,714.499C1591.39,732.665,1532.898,752.33,1503.652,762.163L1474.406,771.995"/><path marker-end="url(#my-svg_flowchart-v2-pointEnd)" style="" class="edge-thickness-normal edge-pattern-dotted edge-thickness-normal edge-pattern-solid flowchart-link" id="L_OrderService_CustomerService_0" d="M1933.266,664.801L1892.924,672.834C1852.583,680.868,1771.901,696.934,1731.56,719.512C1691.219,742.09,1691.219,771.18,1691.219,800.27C1691.219,829.36,1691.219,858.45,1691.219,889.74C1691.219,921.029,1691.219,954.519,1691.219,988.009C1691.219,1021.498,1691.219,1054.988,1639.834,1079.836C1588.45,1104.684,1485.681,1120.89,1434.297,1128.994L1382.912,1137.097"/><path marker-end="url(#my-svg_flowchart-v2-pointEnd)" style="" class="edge-thickness-normal edge-pattern-dotted edge-thickness-normal edge-pattern-solid flowchart-link" id="L_OrderService_PaymentGateway_0" d="M1933.266,675.585L1914.652,681.821C1896.039,688.056,1858.813,700.528,1840.199,716.142C1821.586,731.757,1821.586,750.513,1821.586,759.892L1821.586,769.27"/><path marker-end="url(#my-svg_flowchart-v2-pointEnd)" style="" class="edge-thickness-normal edge-pattern-solid edge-thickness-normal edge-pattern-solid flowchart-link" id="L_IdentityService_MessageBus_0" d="M1017.386,827.27L1007.916,837.315C998.446,847.36,979.506,867.45,971.499,884.794C963.491,902.138,966.416,916.737,967.878,924.036L969.34,931.335"/><path marker-end="url(#my-svg_flowchart-v2-pointEnd)" style="" class="edge-thickness-normal edge-pattern-solid edge-thickness-normal edge-pattern-solid flowchart-link" id="L_CatalogService_MessageBus_0" d="M1334.67,827.27L1313.972,837.315C1293.273,847.36,1251.877,867.45,1200.801,890.845C1149.726,914.24,1088.971,940.94,1058.593,954.29L1028.216,967.641"/><path marker-end="url(#my-svg_flowchart-v2-pointEnd)" style="" class="edge-thickness-normal edge-pattern-solid edge-thickness-normal edge-pattern-solid flowchart-link" id="L_CustomerService_MessageBus_0" d="M1302.472,1125.477L1306.375,1119.311C1310.278,1113.144,1318.084,1100.811,1273.235,1080.548C1228.385,1060.285,1130.88,1032.093,1082.127,1017.997L1033.374,1003.9"/><path marker-end="url(#my-svg_flowchart-v2-pointEnd)" style="" class="edge-thickness-normal edge-pattern-solid edge-thickness-normal edge-pattern-solid flowchart-link" id="L_MessageBus_CustomerService_0" d="M925.664,997.297L830.511,1012.494C735.359,1027.69,545.055,1058.084,588.746,1082.829C632.438,1107.574,910.126,1126.671,1048.97,1136.219L1187.814,1145.767"/><path marker-end="url(#my-svg_flowchart-v2-pointEnd)" style="" class="edge-thickness-normal edge-pattern-solid edge-thickness-normal edge-pattern-solid flowchart-link" id="L_MessageBus_NotificationService_0" d="M953.371,1025.004L945.407,1035.583C937.444,1046.162,921.517,1067.32,866.888,1085.708C812.259,1104.097,718.928,1119.717,672.263,1127.526L625.597,1135.336"/><path marker-end="url(#my-svg_flowchart-v2-pointEnd)" style="" class="edge-thickness-normal edge-pattern-solid edge-thickness-normal edge-pattern-solid flowchart-link" id="L_MessageBus_NotificationService_2" d="M1022.574,1009.747L1048.746,1022.869C1074.919,1035.991,1127.264,1062.234,1061.107,1084.357C994.951,1106.481,810.292,1124.484,717.963,1133.486L625.633,1142.488"/><path marker-end="url(#my-svg_flowchart-v2-pointEnd)" style="" class="edge-thickness-normal edge-pattern-dotted edge-thickness-normal edge-pattern-solid flowchart-link" id="L_NotificationService_EmailProvider_0" d="M523.176,1179.477L523.176,1185.644C523.176,1191.811,523.176,1204.144,523.176,1220.008C523.176,1235.871,523.176,1255.265,523.176,1264.962L523.176,1274.659"/><path marker-end="url(#my-svg_flowchart-v2-pointEnd)" style="" class="edge-thickness-normal edge-pattern-solid edge-thickness-normal edge-pattern-solid flowchart-link" id="L_IdentityService_IdentityDB_0" d="M1068.294,827.27L1077.764,837.315C1087.234,847.36,1106.174,867.45,1117.184,885.555C1128.195,903.661,1131.277,919.782,1132.819,927.842L1134.36,935.902"/><path marker-end="url(#my-svg_flowchart-v2-pointEnd)" style="" class="edge-thickness-normal edge-pattern-solid edge-thickness-normal edge-pattern-solid flowchart-link" id="L_CatalogService_CatalogWriteDB_0" d="M1366.968,827.27L1358.286,837.315C1349.604,847.36,1332.239,867.45,1323.557,885.041C1314.875,902.632,1314.875,917.723,1314.875,925.269L1314.875,932.815"/><path marker-end="url(#my-svg_flowchart-v2-pointEnd)" style="" class="edge-thickness-normal edge-pattern-solid edge-thickness-normal edge-pattern-solid flowchart-link" id="L_CatalogService_CatalogReadDB_0" d="M1425.415,827.27L1438.477,837.315C1451.54,847.36,1477.664,867.45,1490.727,885.026C1503.789,902.603,1503.789,917.666,1503.789,925.198L1503.789,932.73"/><path marker-end="url(#my-svg_flowchart-v2-pointEnd)" style="" class="edge-thickness-normal edge-pattern-solid edge-thickness-normal edge-pattern-solid flowchart-link" id="L_CustomerService_CustomerWriteDB_0" d="M1191.805,1163.289L1115.079,1172.154C1038.353,1181.018,884.901,1198.748,808.175,1213.125C731.449,1227.502,731.449,1238.526,731.449,1244.038L731.449,1249.55"/><path marker-end="url(#my-svg_flowchart-v2-pointEnd)" style="" class="edge-thickness-normal edge-pattern-solid edge-thickness-normal edge-pattern-solid flowchart-link" id="L_CustomerService_CustomerReadDB_0" d="M1285.383,1179.477L1285.383,1185.644C1285.383,1191.811,1285.383,1204.144,1285.383,1215.811C1285.383,1227.477,1285.383,1238.477,1285.383,1243.977L1285.383,1249.477"/><path marker-end="url(#my-svg_flowchart-v2-pointEnd)" style="" class="edge-thickness-normal edge-pattern-solid edge-thickness-normal edge-pattern-solid flowchart-link" id="L_OrderService_OrderWriteDB_0" d="M2019.522,676L2021.099,682.167C2022.676,688.333,2025.83,700.667,2027.407,712.348C2028.984,724.03,2028.984,735.06,2028.984,740.575L2028.984,746.09"/><path marker-end="url(#my-svg_flowchart-v2-pointEnd)" style="" class="edge-thickness-normal edge-pattern-solid edge-thickness-normal edge-pattern-solid flowchart-link" id="L_OrderService_OrderReadDB_0" d="M2091.969,675.585L2110.582,681.821C2129.195,688.056,2166.422,700.528,2185.035,712.264C2203.648,724,2203.648,735,2203.648,740.5L2203.648,746"/></g><g class="edgeLabels"><g class="edgeLabel"><g transform="translate(0, 0)" class="label"><foreignObject height="0" width="0"><div style="display: table-cell; white-space: nowrap; line-height: 1.5; max-width: 200px; text-align: center;" class="labelBkg" xmlns="http://www.w3.org/1999/xhtml"><span class="edgeLabel"></span></div></foreignObject></g></g><g transform="translate(1042.83984375, 649)" class="edgeLabel"><g transform="translate(-21.3359375, -12)" class="label"><foreignObject height="24" width="42.671875"><div style="display: table-cell; white-space: nowrap; line-height: 1.5; max-width: 200px; text-align: center;" class="labelBkg" xmlns="http://www.w3.org/1999/xhtml"><span class="edgeLabel"><p>REST</p></span></div></foreignObject></g></g><g transform="translate(1390.3046875, 649)" class="edgeLabel"><g transform="translate(-21.3359375, -12)" class="label"><foreignObject height="24" width="42.671875"><div style="display: table-cell; white-space: nowrap; line-height: 1.5; max-width: 200px; text-align: center;" class="labelBkg" xmlns="http://www.w3.org/1999/xhtml"><span class="edgeLabel"><p>REST</p></span></div></foreignObject></g></g><g transform="translate(1608.546875, 800.269905090332)" class="edgeLabel"><g transform="translate(-21.3359375, -12)" class="label"><foreignObject height="24" width="42.671875"><div style="display: table-cell; white-space: nowrap; line-height: 1.5; max-width: 200px; text-align: center;" class="labelBkg" xmlns="http://www.w3.org/1999/xhtml"><span class="edgeLabel"><p>REST</p></span></div></foreignObject></g></g><g transform="translate(2012.6171875, 585)" class="edgeLabel"><g transform="translate(-21.3359375, -12)" class="label"><foreignObject height="24" width="42.671875"><div style="display: table-cell; white-space: nowrap; line-height: 1.5; max-width: 200px; text-align: center;" class="labelBkg" xmlns="http://www.w3.org/1999/xhtml"><span class="edgeLabel"><p>REST</p></span></div></foreignObject></g></g><g transform="translate(1649.8828125, 713)" class="edgeLabel"><g transform="translate(-21.3359375, -12)" class="label"><foreignObject height="24" width="42.671875"><div style="display: table-cell; white-space: nowrap; line-height: 1.5; max-width: 200px; text-align: center;" class="labelBkg" xmlns="http://www.w3.org/1999/xhtml"><span class="edgeLabel"><p>REST</p></span></div></foreignObject></g></g><g transform="translate(1691.21875, 887.5398101806641)" class="edgeLabel"><g transform="translate(-21.3359375, -12)" class="label"><foreignObject height="24" width="42.671875"><div style="display: table-cell; white-space: nowrap; line-height: 1.5; max-width: 200px; text-align: center;" class="labelBkg" xmlns="http://www.w3.org/1999/xhtml"><span class="edgeLabel"><p>REST</p></span></div></foreignObject></g></g><g transform="translate(1821.5859375, 713)" class="edgeLabel"><g transform="translate(-21.3359375, -12)" class="label"><foreignObject height="24" width="42.671875"><div style="display: table-cell; white-space: nowrap; line-height: 1.5; max-width: 200px; text-align: center;" class="labelBkg" xmlns="http://www.w3.org/1999/xhtml"><span class="edgeLabel"><p>REST</p></span></div></foreignObject></g></g><g transform="translate(960.56640625, 887.5398101806641)" class="edgeLabel"><g transform="translate(-55.578125, -12)" class="label"><foreignObject height="24" width="111.15625"><div style="display: table-cell; white-space: nowrap; line-height: 1.5; max-width: 200px; text-align: center;" class="labelBkg" xmlns="http://www.w3.org/1999/xhtml"><span class="edgeLabel"><p>UserRegistered</p></span></div></foreignObject></g></g><g transform="translate(1210.48046875, 887.5398101806641)" class="edgeLabel"><g transform="translate(-65.3671875, -12)" class="label"><foreignObject height="24" width="130.734375"><div style="display: table-cell; white-space: nowrap; line-height: 1.5; max-width: 200px; text-align: center;" class="labelBkg" xmlns="http://www.w3.org/1999/xhtml"><span class="edgeLabel"><p>ProductRestocked</p></span></div></foreignObject></g></g><g transform="translate(1325.890625, 1088.477310180664)" class="edgeLabel"><g transform="translate(-63.140625, -12)" class="label"><foreignObject height="24" width="126.28125"><div style="display: table-cell; white-space: nowrap; line-height: 1.5; max-width: 200px; text-align: center;" class="labelBkg" xmlns="http://www.w3.org/1999/xhtml"><span class="edgeLabel"><p>CustomerCreated</p></span></div></foreignObject></g></g><g transform="translate(354.75, 1088.477310180664)" class="edgeLabel"><g transform="translate(-55.578125, -12)" class="label"><foreignObject height="24" width="111.15625"><div style="display: table-cell; white-space: nowrap; line-height: 1.5; max-width: 200px; text-align: center;" class="labelBkg" xmlns="http://www.w3.org/1999/xhtml"><span class="edgeLabel"><p>UserRegistered</p></span></div></foreignObject></g></g><g transform="translate(905.58984375, 1088.477310180664)" class="edgeLabel"><g transform="translate(-65.3671875, -12)" class="label"><foreignObject height="24" width="130.734375"><div style="display: table-cell; white-space: nowrap; line-height: 1.5; max-width: 200px; text-align: center;" class="labelBkg" xmlns="http://www.w3.org/1999/xhtml"><span class="edgeLabel"><p>ProductRestocked</p></span></div></foreignObject></g></g><g transform="translate(1179.609375, 1088.477310180664)" class="edgeLabel"><g transform="translate(-63.140625, -12)" class="label"><foreignObject height="24" width="126.28125"><div style="display: table-cell; white-space: nowrap; line-height: 1.5; max-width: 200px; text-align: center;" class="labelBkg" xmlns="http://www.w3.org/1999/xhtml"><span class="edgeLabel"><p>CustomerCreated</p></span></div></foreignObject></g></g><g transform="translate(523.17578125, 1216.477310180664)" class="edgeLabel"><g transform="translate(-22.2265625, -12)" class="label"><foreignObject height="24" width="44.453125"><div style="display: table-cell; white-space: nowrap; line-height: 1.5; max-width: 200px; text-align: center;" class="labelBkg" xmlns="http://www.w3.org/1999/xhtml"><span class="edgeLabel"><p>SMTP</p></span></div></foreignObject></g></g><g class="edgeLabel"><g transform="translate(0, 0)" class="label"><foreignObject height="0" width="0"><div style="display: table-cell; white-space: nowrap; line-height: 1.5; max-width: 200px; text-align: center;" class="labelBkg" xmlns="http://www.w3.org/1999/xhtml"><span class="edgeLabel"></span></div></foreignObject></g></g><g class="edgeLabel"><g transform="translate(0, 0)" class="label"><foreignObject height="0" width="0"><div style="display: table-cell; white-space: nowrap; line-height: 1.5; max-width: 200px; text-align: center;" class="labelBkg" xmlns="http://www.w3.org/1999/xhtml"><span class="edgeLabel"></span></div></foreignObject></g></g><g class="edgeLabel"><g transform="translate(0, 0)" class="label"><foreignObject height="0" width="0"><div style="display: table-cell; white-space: nowrap; line-height: 1.5; max-width: 200px; text-align: center;" class="labelBkg" xmlns="http://www.w3.org/1999/xhtml"><span class="edgeLabel"></span></div></foreignObject></g></g><g class="edgeLabel"><g transform="translate(0, 0)" class="label"><foreignObject height="0" width="0"><div style="display: table-cell; white-space: nowrap; line-height: 1.5; max-width: 200px; text-align: center;" class="labelBkg" xmlns="http://www.w3.org/1999/xhtml"><span class="edgeLabel"></span></div></foreignObject></g></g><g class="edgeLabel"><g transform="translate(0, 0)" class="label"><foreignObject height="0" width="0"><div style="display: table-cell; white-space: nowrap; line-height: 1.5; max-width: 200px; text-align: center;" class="labelBkg" xmlns="http://www.w3.org/1999/xhtml"><span class="edgeLabel"></span></div></foreignObject></g></g><g class="edgeLabel"><g transform="translate(0, 0)" class="label"><foreignObject height="0" width="0"><div style="display: table-cell; white-space: nowrap; line-height: 1.5; max-width: 200px; text-align: center;" class="labelBkg" xmlns="http://www.w3.org/1999/xhtml"><span class="edgeLabel"></span></div></foreignObject></g></g><g class="edgeLabel"><g transform="translate(0, 0)" class="label"><foreignObject height="0" width="0"><div style="display: table-cell; white-space: nowrap; line-height: 1.5; max-width: 200px; text-align: center;" class="labelBkg" xmlns="http://www.w3.org/1999/xhtml"><span class="edgeLabel"></span></div></foreignObject></g></g></g><g class="nodes"><g transform="translate(0, 104)" class="root"><g class="clusters"><g data-look="classic" id="subGraph4" class="cluster"><rect height="228" width="266.609375" y="8" x="8" style=""/><g transform="translate(72.828125, 8)" class="cluster-label"><foreignObject height="24" width="136.953125"><div style="display: table-cell; white-space: nowrap; line-height: 1.5; max-width: 200px; text-align: center;" xmlns="http://www.w3.org/1999/xhtml"><span class="nodeLabel"><p>Notification Service</p></span></div></foreignObject></g></g></g><g class="edgePaths"/><g class="edgeLabels"/><g class="nodes"><g transform="translate(141.3046875, 70)" id="flowchart-EmailNotifications-72" class="node default"><rect height="54" width="191.609375" y="-27" x="-95.8046875" style="" class="basic label-container"/><g transform="translate(-65.8046875, -12)" style="" class="label"><rect/><foreignObject height="24" width="131.609375"><div style="display: table-cell; white-space: nowrap; line-height: 1.5; max-width: 200px; text-align: center;" xmlns="http://www.w3.org/1999/xhtml"><span class="nodeLabel"><p>Email Notifications</p></span></div></foreignObject></g></g><g transform="translate(141.3046875, 174)" id="flowchart-EventProcessing-73" class="node default"><rect height="54" width="184.515625" y="-27" x="-92.2578125" style="" class="basic label-container"/><g transform="translate(-62.2578125, -12)" style="" class="label"><rect/><foreignObject height="24" width="124.515625"><div style="display: table-cell; white-space: nowrap; line-height: 1.5; max-width: 200px; text-align: center;" xmlns="http://www.w3.org/1999/xhtml"><span class="nodeLabel"><p>Event Processing</p></span></div></foreignObject></g></g></g></g><g transform="translate(316.609375, 104)" class="root"><g class="clusters"><g data-look="classic" id="subGraph3" class="cluster"><rect height="228" width="278.203125" y="8" x="8" style=""/><g transform="translate(97.75, 8)" class="cluster-label"><foreignObject height="24" width="98.703125"><div style="display: table-cell; white-space: nowrap; line-height: 1.5; max-width: 200px; text-align: center;" xmlns="http://www.w3.org/1999/xhtml"><span class="nodeLabel"><p>Order Service</p></span></div></foreignObject></g></g></g><g class="edgePaths"/><g class="edgeLabels"/><g class="nodes"><g transform="translate(147.1015625, 70)" id="flowchart-OrderProcessing-70" class="node default"><rect height="54" width="184.5" y="-27" x="-92.25" style="" class="basic label-container"/><g transform="translate(-62.25, -12)" style="" class="label"><rect/><foreignObject height="24" width="124.5"><div style="display: table-cell; white-space: nowrap; line-height: 1.5; max-width: 200px; text-align: center;" xmlns="http://www.w3.org/1999/xhtml"><span class="nodeLabel"><p>Order Processing</p></span></div></foreignObject></g></g><g transform="translate(147.1015625, 174)" id="flowchart-PaymentIntegration-71" class="node default"><rect height="54" width="203.203125" y="-27" x="-101.6015625" style="" class="basic label-container"/><g transform="translate(-71.6015625, -12)" style="" class="label"><rect/><foreignObject height="24" width="143.203125"><div style="display: table-cell; white-space: nowrap; line-height: 1.5; max-width: 200px; text-align: center;" xmlns="http://www.w3.org/1999/xhtml"><span class="nodeLabel"><p>Payment Integration</p></span></div></foreignObject></g></g></g></g><g transform="translate(644.8125, 104)" class="root"><g class="clusters"><g data-look="classic" id="subGraph2" class="cluster"><rect height="228" width="302.1875" y="8" x="8" style=""/><g transform="translate(95.515625, 8)" class="cluster-label"><foreignObject height="24" width="127.15625"><div style="display: table-cell; white-space: nowrap; line-height: 1.5; max-width: 200px; text-align: center;" xmlns="http://www.w3.org/1999/xhtml"><span class="nodeLabel"><p>Customer Service</p></span></div></foreignObject></g></g></g><g class="edgePaths"/><g class="edgeLabels"/><g class="nodes"><g transform="translate(159.09375, 70)" id="flowchart-CustomerMgmt-68" class="node default"><rect height="54" width="227.1875" y="-27" x="-113.59375" style="" class="basic label-container"/><g transform="translate(-83.59375, -12)" style="" class="label"><rect/><foreignObject height="24" width="167.1875"><div style="display: table-cell; white-space: nowrap; line-height: 1.5; max-width: 200px; text-align: center;" xmlns="http://www.w3.org/1999/xhtml"><span class="nodeLabel"><p>Customer Management</p></span></div></foreignObject></g></g><g transform="translate(159.09375, 174)" id="flowchart-Subscriptions-69" class="node default"><rect height="54" width="218.296875" y="-27" x="-109.1484375" style="" class="basic label-container"/><g transform="translate(-79.1484375, -12)" style="" class="label"><rect/><foreignObject height="24" width="158.296875"><div style="display: table-cell; white-space: nowrap; line-height: 1.5; max-width: 200px; text-align: center;" xmlns="http://www.w3.org/1999/xhtml"><span class="nodeLabel"><p>Restock Subscriptions</p></span></div></foreignObject></g></g></g></g><g transform="translate(997, 0)" class="root"><g class="clusters"><g data-look="classic" id="subGraph1" class="cluster"><rect height="436" width="212.375" y="8" x="8" style=""/><g transform="translate(57.7109375, 8)" class="cluster-label"><foreignObject height="24" width="112.953125"><div style="display: table-cell; white-space: nowrap; line-height: 1.5; max-width: 200px; text-align: center;" xmlns="http://www.w3.org/1999/xhtml"><span class="nodeLabel"><p>Catalog Service</p></span></div></foreignObject></g></g></g><g class="edgePaths"/><g class="edgeLabels"/><g class="nodes"><g transform="translate(114.1875, 70)" id="flowchart-Products-64" class="node default"><rect height="54" width="123.140625" y="-27" x="-61.5703125" style="" class="basic label-container"/><g transform="translate(-31.5703125, -12)" style="" class="label"><rect/><foreignObject height="24" width="63.140625"><div style="display: table-cell; white-space: nowrap; line-height: 1.5; max-width: 200px; text-align: center;" xmlns="http://www.w3.org/1999/xhtml"><span class="nodeLabel"><p>Products</p></span></div></foreignObject></g></g><g transform="translate(114.1875, 174)" id="flowchart-Categories-65" class="node default"><rect height="54" width="137.375" y="-27" x="-68.6875" style="" class="basic label-container"/><g transform="translate(-38.6875, -12)" style="" class="label"><rect/><foreignObject height="24" width="77.375"><div style="display: table-cell; white-space: nowrap; line-height: 1.5; max-width: 200px; text-align: center;" xmlns="http://www.w3.org/1999/xhtml"><span class="nodeLabel"><p>Categories</p></span></div></foreignObject></g></g><g transform="translate(114.1875, 278)" id="flowchart-Brands-66" class="node default"><rect height="54" width="110.703125" y="-27" x="-55.3515625" style="" class="basic label-container"/><g transform="translate(-25.3515625, -12)" style="" class="label"><rect/><foreignObject height="24" width="50.703125"><div style="display: table-cell; white-space: nowrap; line-height: 1.5; max-width: 200px; text-align: center;" xmlns="http://www.w3.org/1999/xhtml"><span class="nodeLabel"><p>Brands</p></span></div></foreignObject></g></g><g transform="translate(114.1875, 382)" id="flowchart-Suppliers-67" class="node default"><rect height="54" width="126.703125" y="-27" x="-63.3515625" style="" class="basic label-container"/><g transform="translate(-33.3515625, -12)" style="" class="label"><rect/><foreignObject height="24" width="66.703125"><div style="display: table-cell; white-space: nowrap; line-height: 1.5; max-width: 200px; text-align: center;" xmlns="http://www.w3.org/1999/xhtml"><span class="nodeLabel"><p>Suppliers</p></span></div></foreignObject></g></g></g></g><g transform="translate(1259.375, 52)" class="root"><g class="clusters"><g data-look="classic" id="subGraph0" class="cluster"><rect height="332" width="266.625" y="8" x="8" style=""/><g transform="translate(86.6171875, 8)" class="cluster-label"><foreignObject height="24" width="109.390625"><div style="display: table-cell; white-space: nowrap; line-height: 1.5; max-width: 200px; text-align: center;" xmlns="http://www.w3.org/1999/xhtml"><span class="nodeLabel"><p>Identity Service</p></span></div></foreignObject></g></g></g><g class="edgePaths"/><g class="edgeLabels"/><g class="nodes"><g transform="translate(141.3125, 70)" id="flowchart-AuthN-61" class="node default"><rect height="54" width="161.40625" y="-27" x="-80.703125" style="" class="basic label-container"/><g transform="translate(-50.703125, -12)" style="" class="label"><rect/><foreignObject height="24" width="101.40625"><div style="display: table-cell; white-space: nowrap; line-height: 1.5; max-width: 200px; text-align: center;" xmlns="http://www.w3.org/1999/xhtml"><span class="nodeLabel"><p>Authentication</p></span></div></foreignObject></g></g><g transform="translate(141.3125, 174)" id="flowchart-AuthZ-62" class="node default"><rect height="54" width="153.390625" y="-27" x="-76.6953125" style="" class="basic label-container"/><g transform="translate(-46.6953125, -12)" style="" class="label"><rect/><foreignObject height="24" width="93.390625"><div style="display: table-cell; white-space: nowrap; line-height: 1.5; max-width: 200px; text-align: center;" xmlns="http://www.w3.org/1999/xhtml"><span class="nodeLabel"><p>Authorization</p></span></div></foreignObject></g></g><g transform="translate(141.3125, 278)" id="flowchart-UserMgmt-63" class="node default"><rect height="54" width="191.625" y="-27" x="-95.8125" style="" class="basic label-container"/><g transform="translate(-65.8125, -12)" style="" class="label"><rect/><foreignObject height="24" width="131.625"><div style="display: table-cell; white-space: nowrap; line-height: 1.5; max-width: 200px; text-align: center;" xmlns="http://www.w3.org/1999/xhtml"><span class="nodeLabel"><p>User Management</p></span></div></foreignObject></g></g></g></g><g transform="translate(1679.375, 226)" id="flowchart-Client-0" class="node default"><rect height="54" width="190.75" y="-27" x="-95.375" style="" class="basic label-container"/><g transform="translate(-65.375, -12)" style="" class="label"><rect/><foreignObject height="24" width="130.75"><div style="display: table-cell; white-space: nowrap; line-height: 1.5; max-width: 200px; text-align: center;" xmlns="http://www.w3.org/1999/xhtml"><span class="nodeLabel"><p>Client Applications</p></span></div></foreignObject></g></g><g transform="translate(1821.5859375, 800.269905090332)" id="flowchart-PaymentGateway-1" class="node default"><rect height="54" width="190.734375" y="-27" x="-95.3671875" style="" class="basic label-container"/><g transform="translate(-65.3671875, -12)" style="" class="label"><rect/><foreignObject height="24" width="130.734375"><div style="display: table-cell; white-space: nowrap; line-height: 1.5; max-width: 200px; text-align: center;" xmlns="http://www.w3.org/1999/xhtml"><span class="nodeLabel"><p>Payment Gateway</p></span></div></foreignObject></g></g><g transform="translate(523.17578125, 1305.659278869629)" id="flowchart-EmailProvider-2" class="node default"><rect height="54" width="164.03125" y="-27" x="-82.015625" style="" class="basic label-container"/><g transform="translate(-52.015625, -12)" style="" class="label"><rect/><foreignObject height="24" width="104.03125"><div style="display: table-cell; white-space: nowrap; line-height: 1.5; max-width: 200px; text-align: center;" xmlns="http://www.w3.org/1999/xhtml"><span class="nodeLabel"><p>Email Provider</p></span></div></foreignObject></g></g><g transform="translate(1679.375, 521)" id="flowchart-APIGateway-3" class="node default"><rect height="54" width="153.375" y="-27" x="-76.6875" style="" class="basic label-container"/><g transform="translate(-46.6875, -12)" style="" class="label"><rect/><foreignObject height="24" width="93.375"><div style="display: table-cell; white-space: nowrap; line-height: 1.5; max-width: 200px; text-align: center;" xmlns="http://www.w3.org/1999/xhtml"><span class="nodeLabel"><p>API Gateway</p></span></div></foreignObject></g></g><g transform="translate(1042.83984375, 800.269905090332)" id="flowchart-IdentityService-4" class="node default"><rect height="54" width="169.390625" y="-27" x="-84.6953125" style="" class="basic label-container"/><g transform="translate(-54.6953125, -12)" style="" class="label"><rect/><foreignObject height="24" width="109.390625"><div style="display: table-cell; white-space: nowrap; line-height: 1.5; max-width: 200px; text-align: center;" xmlns="http://www.w3.org/1999/xhtml"><span class="nodeLabel"><p>Identity Service</p></span></div></foreignObject></g></g><g transform="translate(1390.3046875, 800.269905090332)" id="flowchart-CatalogService-5" class="node default"><rect height="54" width="172.953125" y="-27" x="-86.4765625" style="" class="basic label-container"/><g transform="translate(-56.4765625, -12)" style="" class="label"><rect/><foreignObject height="24" width="112.953125"><div style="display: table-cell; white-space: nowrap; line-height: 1.5; max-width: 200px; text-align: center;" xmlns="http://www.w3.org/1999/xhtml"><span class="nodeLabel"><p>Catalog Service</p></span></div></foreignObject></g></g><g transform="translate(1285.3828125, 1152.477310180664)" id="flowchart-CustomerService-6" class="node default"><rect height="54" width="187.15625" y="-27" x="-93.578125" style="" class="basic label-container"/><g transform="translate(-63.578125, -12)" style="" class="label"><rect/><foreignObject height="24" width="127.15625"><div style="display: table-cell; white-space: nowrap; line-height: 1.5; max-width: 200px; text-align: center;" xmlns="http://www.w3.org/1999/xhtml"><span class="nodeLabel"><p>Customer Service</p></span></div></foreignObject></g></g><g transform="translate(2012.6171875, 649)" id="flowchart-OrderService-7" class="node default"><rect height="54" width="158.703125" y="-27" x="-79.3515625" style="" class="basic label-container"/><g transform="translate(-49.3515625, -12)" style="" class="label"><rect/><foreignObject height="24" width="98.703125"><div style="display: table-cell; white-space: nowrap; line-height: 1.5; max-width: 200px; text-align: center;" xmlns="http://www.w3.org/1999/xhtml"><span class="nodeLabel"><p>Order Service</p></span></div></foreignObject></g></g><g transform="translate(523.17578125, 1152.477310180664)" id="flowchart-NotificationService-8" class="node default"><rect height="54" width="196.953125" y="-27" x="-98.4765625" style="" class="basic label-container"/><g transform="translate(-68.4765625, -12)" style="" class="label"><rect/><foreignObject height="24" width="136.953125"><div style="display: table-cell; white-space: nowrap; line-height: 1.5; max-width: 200px; text-align: center;" xmlns="http://www.w3.org/1999/xhtml"><span class="nodeLabel"><p>Notification Service</p></span></div></foreignObject></g></g><g transform="translate(979.84375, 988.0085601806641)" id="flowchart-MessageBus-9" class="node default"><polygon transform="translate(-63.46875,63.46875)" class="label-container" points="63.46875,0 126.9375,-63.46875 63.46875,-126.9375 0,-63.46875"/><g transform="translate(-36.46875, -12)" style="" class="label"><rect/><foreignObject height="24" width="72.9375"><div style="display: table-cell; white-space: nowrap; line-height: 1.5; max-width: 200px; text-align: center;" xmlns="http://www.w3.org/1999/xhtml"><span class="nodeLabel"><p>Event Bus</p></span></div></foreignObject></g></g><g transform="translate(1144.390625, 988.0085601806641)" id="flowchart-IdentityDB-10" class="node default"><path transform="translate(-51.078125, -48.364424267437066)" style="" class="basic label-container" d="M0,11.242949511624708 a51.078125,11.242949511624708 0,0,0 102.15625,0 a51.078125,11.242949511624708 0,0,0 -102.15625,0 l0,74.24294951162472 a51.078125,11.242949511624708 0,0,0 102.15625,0 l0,-74.24294951162472"/><g transform="translate(-43.578125, -14)" style="" class="label"><rect/><foreignObject height="48" width="87.15625"><div style="display: table-cell; white-space: nowrap; line-height: 1.5; max-width: 200px; text-align: center;" xmlns="http://www.w3.org/1999/xhtml"><span class="nodeLabel"><p>Identity DB<br />PostgreSQL</p></span></div></foreignObject></g></g><g transform="translate(1314.875, 988.0085601806641)" id="flowchart-CatalogWriteDB-11" class="node default"><path transform="translate(-69.15625, -51.197958699264184)" style="" class="basic label-container" d="M0,13.131972466176123 a69.15625,13.131972466176123 0,0,0 138.3125,0 a69.15625,13.131972466176123 0,0,0 -138.3125,0 l0,76.13197246617612 a69.15625,13.131972466176123 0,0,0 138.3125,0 l0,-76.13197246617612"/><g transform="translate(-61.65625, -14)" style="" class="label"><rect/><foreignObject height="48" width="123.3125"><div style="display: table-cell; white-space: nowrap; line-height: 1.5; max-width: 200px; text-align: center;" xmlns="http://www.w3.org/1999/xhtml"><span class="nodeLabel"><p>Catalog Write DB<br />PostgreSQL</p></span></div></foreignObject></g></g><g transform="translate(1503.7890625, 988.0085601806641)" id="flowchart-CatalogReadDB-12" class="node default"><path transform="translate(-69.7578125, -51.278929647350694)" style="" class="basic label-container" d="M0,13.185953098233798 a69.7578125,13.185953098233798 0,0,0 139.515625,0 a69.7578125,13.185953098233798 0,0,0 -139.515625,0 l0,76.1859530982338 a69.7578125,13.185953098233798 0,0,0 139.515625,0 l0,-76.1859530982338"/><g transform="translate(-62.2578125, -14)" style="" class="label"><rect/><foreignObject height="48" width="124.515625"><div style="display: table-cell; white-space: nowrap; line-height: 1.5; max-width: 200px; text-align: center;" xmlns="http://www.w3.org/1999/xhtml"><span class="nodeLabel"><p>Catalog Read DB<br />MongoDB</p></span></div></foreignObject></g></g><g transform="translate(731.44921875, 1305.659278869629)" id="flowchart-CustomerWriteDB-13" class="node default"><path transform="translate(-76.2578125, -52.10905917459602)" style="" class="basic label-container" d="M0,13.739372783064015 a76.2578125,13.739372783064015 0,0,0 152.515625,0 a76.2578125,13.739372783064015 0,0,0 -152.515625,0 l0,76.73937278306401 a76.2578125,13.739372783064015 0,0,0 152.515625,0 l0,-76.73937278306401"/><g transform="translate(-68.7578125, -14)" style="" class="label"><rect/><foreignObject height="48" width="137.515625"><div style="display: table-cell; white-space: nowrap; line-height: 1.5; max-width: 200px; text-align: center;" xmlns="http://www.w3.org/1999/xhtml"><span class="nodeLabel"><p>Customer Write DB<br />PostgreSQL</p></span></div></foreignObject></g></g><g transform="translate(1285.3828125, 1305.659278869629)" id="flowchart-CustomerReadDB-14" class="node default"><path transform="translate(-76.859375, -52.181971072990244)" style="" class="basic label-container" d="M0,13.78798071532683 a76.859375,13.78798071532683 0,0,0 153.71875,0 a76.859375,13.78798071532683 0,0,0 -153.71875,0 l0,76.78798071532682 a76.859375,13.78798071532683 0,0,0 153.71875,0 l0,-76.78798071532682"/><g transform="translate(-69.359375, -14)" style="" class="label"><rect/><foreignObject height="48" width="138.71875"><div style="display: table-cell; white-space: nowrap; line-height: 1.5; max-width: 200px; text-align: center;" xmlns="http://www.w3.org/1999/xhtml"><span class="nodeLabel"><p>Customer Read DB<br />MongoDB</p></span></div></foreignObject></g></g><g transform="translate(2028.984375, 800.269905090332)" id="flowchart-OrderWriteDB-15" class="node default"><path transform="translate(-62.03125, -50.17942283563363)" style="" class="basic label-container" d="M0,12.452948557089083 a62.03125,12.452948557089083 0,0,0 124.0625,0 a62.03125,12.452948557089083 0,0,0 -124.0625,0 l0,75.45294855708909 a62.03125,12.452948557089083 0,0,0 124.0625,0 l0,-75.45294855708909"/><g transform="translate(-54.53125, -14)" style="" class="label"><rect/><foreignObject height="48" width="109.0625"><div style="display: table-cell; white-space: nowrap; line-height: 1.5; max-width: 200px; text-align: center;" xmlns="http://www.w3.org/1999/xhtml"><span class="nodeLabel"><p>Order Write DB<br />PostgreSQL</p></span></div></foreignObject></g></g><g transform="translate(2203.6484375, 800.269905090332)" id="flowchart-OrderReadDB-16" class="node default"><path transform="translate(-62.6328125, -50.26990073047387)" style="" class="basic label-container" d="M0,12.513267153649247 a62.6328125,12.513267153649247 0,0,0 125.265625,0 a62.6328125,12.513267153649247 0,0,0 -125.265625,0 l0,75.51326715364925 a62.6328125,12.513267153649247 0,0,0 125.265625,0 l0,-75.51326715364925"/><g transform="translate(-55.1328125, -14)" style="" class="label"><rect/><foreignObject height="48" width="110.265625"><div style="display: table-cell; white-space: nowrap; line-height: 1.5; max-width: 200px; text-align: center;" xmlns="http://www.w3.org/1999/xhtml"><span class="nodeLabel"><p>Order Read DB<br />MongoDB</p></span></div></foreignObject></g></g></g></g></g></svg>